<?xml version="1.0" encoding="utf-8"?>
<!-- Generator: Adobe Illustrator 24.3.0, SVG Export Plug-In . SVG Version: 6.00 Build 0)  -->
<svg version="1.1" id="图层_1" xmlns="http://www.w3.org/2000/svg" xmlns:xlink="http://www.w3.org/1999/xlink" x="0px" y="0px"
	 viewBox="0 0 16 16" style="enable-background:new 0 0 16 16;" xml:space="preserve">
<style type="text/css">
	.st0{fill:#888888;}
</style>
<path class="st0" d="M0.2,8.4c-0.2,0.2-0.3,0.6,0,0.9c0,0,0,0,0,0c0.3,0.2,0.7,0.2,0.9,0L8,2.6l6.9,6.7c0.3,0.3,0.7,0.2,0.9,0
	c0,0,0,0,0,0c0.2-0.2,0.2-0.6,0-0.9c0,0,0,0,0,0L8.5,1.2C8.2,1,7.8,1,7.5,1.2L0.2,8.4L0.2,8.4z M0.2,13.9c-0.2,0.2-0.3,0.6,0,0.9
	c0,0,0,0,0,0c0.3,0.2,0.7,0.2,0.9,0L8,8.1l6.9,6.7c0.3,0.3,0.7,0.2,0.9,0c0,0,0,0,0,0c0.2-0.2,0.2-0.6,0-0.9c0,0,0,0,0,0L8.5,6.7
	c-0.3-0.3-0.7-0.3-1,0L0.2,13.9L0.2,13.9z"/>
</svg>
