<?xml version="1.0" encoding="utf-8"?>
<!-- Generator: Adobe Illustrator 24.3.0, SVG Export Plug-In . SVG Version: 6.00 Build 0)  -->
<svg version="1.1" id="图层_1" xmlns="http://www.w3.org/2000/svg" xmlns:xlink="http://www.w3.org/1999/xlink" x="0px" y="0px"
	 viewBox="0 0 16 16" style="enable-background:new 0 0 16 16;" xml:space="preserve">
<style type="text/css">
	.st0{fill:#888888;}
</style>
<path class="st0" d="M0.2,7.6c-0.2-0.2-0.3-0.6,0-0.9c0,0,0,0,0,0c0.3-0.2,0.7-0.2,0.9,0L8,13.4l6.9-6.7c0.3-0.3,0.7-0.2,0.9,0
	c0,0,0,0,0,0c0.2,0.2,0.2,0.6,0,0.9c0,0,0,0,0,0l-7.3,7.1c-0.3,0.3-0.7,0.3-1,0L0.2,7.6L0.2,7.6z M0.2,2.1c-0.2-0.2-0.3-0.6,0-0.9
	c0,0,0,0,0,0C0.4,1,0.9,1,1.1,1.2L8,7.9l6.9-6.7c0.3-0.3,0.7-0.2,0.9,0c0,0,0,0,0,0c0.2,0.2,0.2,0.6,0,0.9c0,0,0,0,0,0L8.5,9.3
	c-0.3,0.3-0.7,0.3-1,0L0.2,2.1L0.2,2.1z"/>
</svg>
